<?xml version="1.0" encoding="utf-8"?>
<!-- Generator: Adobe Illustrator 23.1.0, SVG Export Plug-In . SVG Version: 6.00 Build 0)  -->
<svg version="1.1" id="图层_1" xmlns="http://www.w3.org/2000/svg" xmlns:xlink="http://www.w3.org/1999/xlink" x="0px" y="0px"
	 viewBox="0 0 283.5 283.5" style="enable-background:new 0 0 283.5 283.5;" xml:space="preserve">
<style type="text/css">
	.st0{fill:#35A696;}
</style>
<g>
	<path class="st0" d="M189.8,116c-1.5-2.3-3.9-3.9-6.7-4.2c-3,0.1-6,0.9-8.6,2.4v-8.7c0-3.6-2.9-6.5-6.5-6.5h-4.6h-15h-6.5h-6.5
		h-6.5H127c0.4,1.3,0.5,2.5,0.5,3.5c0,1.1-0.1,2.1-0.4,3c1.8,0,3.7,0,3.7,0h19.6c0.1-0.2,0.6-0.1,1.1,0h1h3.8h11.5v15.3
		c0,19.3-15.6,34.9-34.9,34.9c-19.4-0.3-35-16-35-35.5l0.2-14.7h16.2h3.4h1.8c0.5-0.8,0.9-1.9,0.9-3.1c0-1.2-0.5-2.3-1.4-3.5h-3.4
		H98.2c-3.6,0-6.5,2.9-6.5,6.5l-0.1,14.7c0,16.4,8.4,30.8,21.9,37.6h-6.5c-1.8-0.1-3.4,1.2-3.5,3c0,1.8,0.6,3.5,2.4,3.5h52.3
		c1.9-0.1,3.4-1.6,3.5-3.5c0.2-0.7,0-1.5-0.5-2.1c-0.5-0.6-1.2-0.9-2-0.9h-8.7c5-2.6,9.5-6.2,13.1-10.5c0.4,0.2,25.5-13,27.7-20.4
		C192.5,123.2,191.9,119.2,189.8,116z M184.8,124.4c-1.3,4.4-6,6.9-13.3,10.9c2.2-3.7,3.2-8,3-12.4c0,0,5.8-4.8,7.9-4.6
		c0.8,0.1,1.5,0.6,1.9,1.3C185.3,121,185.5,122.8,184.8,124.4z"/>
	<rect x="121.9" y="105.3" class="st0" width="3.6" height="10.4"/>
	<g>
		<path class="st0" d="M132.6,140.9c0.7,0.7,1.6,0.7,2.2,0c0.6-0.6,0.7-1.6,0-2.2l-1.1-1.1l2.2-2.2l1.1,1.1c0.7,0.7,1.6,0.7,2.2,0
			c0.6-0.6,0.7-1.6,0-2.2l-1.1-1.1l1.1-1.1c1.2-1.2,1.2-3.2,0-4.5l-1.1-1.1l1.1-1.1c0.6-0.6,0.7-1.6,0-2.2c-0.6-0.6-1.6-0.7-2.2,0
			l-1.1,1.1l-2.2-2.2l1.1-1.1c0.6-0.6,0.7-1.6,0-2.2c-0.7-0.7-1.6-0.7-2.2,0l-1.1,1.1l-2.2-2.2l1.1-1.1c0.6-0.6,0.7-1.6,0-2.2
			c-0.7-0.7-1.6-0.7-2.2,0l-1.1,1.1l-1.1-1.1c-1.2-1.2-3.2-1.2-4.5,0l-1.1,1.1l-1.1-1.1c-0.7-0.7-1.6-0.7-2.2,0
			c-0.6,0.6-0.7,1.6,0,2.2l1.1,1.1l-2.2,2.2l-1.1-1.1c-0.7-0.7-1.6-0.7-2.2,0c-0.6,0.6-0.7,1.6,0,2.2l1.1,1.1l-2.2,2.2l-1.1-1.1
			c-0.7-0.7-1.6-0.7-2.2,0c-0.6,0.6-0.7,1.6,0,2.2l1.1,1.1l-1.1,1.1c-1.2,1.2-1.2,3.2,0,4.5l1.1,1.1l-1.1,1.1
			c-0.6,0.6-0.7,1.6,0,2.2c0.7,0.7,1.6,0.7,2.2,0l1.1-1.1l2.2,2.2l-1.1,1.1c-0.6,0.6-0.7,1.6,0,2.2c0.7,0.7,1.6,0.7,2.2,0l1.1-1.1
			l2.2,2.2l-1.1,1.1c-0.6,0.6-0.7,1.6,0,2.2c0.6,0.6,1.6,0.7,2.2,0l1.1-1.1l1.1,1.1c1.2,1.2,3.2,1.2,4.5,0l1.1-1.1l1.1,1.1
			c0.7,0.7,1.6,0.7,2.2,0c0.6-0.6,0.7-1.6,0-2.2l-1.1-1.1l2.2-2.2L132.6,140.9L132.6,140.9z M123.7,143.1l-13.4-13.4l13.4-13.4
			l13.4,13.4L123.7,143.1z"/>
		<path class="st0" d="M121.5,133.1c-0.4,0.4-0.9,0.4-1.3,0l-0.1-0.1c-0.4-0.4-0.4-0.9,0-1.3l1.7-1.7c0.4-0.4,0.9-0.4,1.3,0l0.1,0.1
			c0.4,0.4,0.4,0.9,0,1.3L121.5,133.1z M128.3,133.5c0.5-0.5,0.5-1.2,0-1.7l-6.9-6.9c-0.5-0.5-1.2-0.5-1.7,0l-4.1,4.1
			c-0.5,0.5-0.5,1.2,0,1.7l6.9,6.9c0.5,0.5,1.2,0.5,1.7,0L128.3,133.5L128.3,133.5z M128.7,131.1l-0.9-0.9c1.4-1.4,1.4-3.5,0-4.8
			c-1.3-1.3-3.5-1.3-4.8,0l-0.9-0.9c1.7-1.7,4.8-1.8,6.5,0C130.5,126.3,130.3,129.4,128.7,131.1z"/>
	</g>
	<path class="st0" d="M114,88.5c0,2.3-2.3,4.3-2.3,4.3l0,0l5.2,4.5c0.5-0.4,4.5-3.8,4.5-8.7c0-2.1-0.8-5.2-4.5-8.3
		c-1.5-1.3-2.3-2.5-2.3-3.8c0-2.3,2.3-4.3,2.3-4.3l0,0l-5.2-4.5c-0.5,0.4-4.5,3.8-4.5,8.7c0,2.1,0.8,5.2,4.5,8.3
		C113.3,85.9,114,87.2,114,88.5z"/>
	<path class="st0" d="M150.1,88.5c0,2.3-2.3,4.3-2.3,4.3l0,0l5.2,4.5c0.5-0.4,4.5-3.8,4.5-8.7c0-2.1-0.8-5.2-4.5-8.3
		c-1.5-1.3-2.3-2.5-2.3-3.8c0-2.3,2.3-4.3,2.3-4.3l0,0l-5.2-4.5c-0.5,0.4-4.5,3.8-4.5,8.7c0,2.1,0.8,5.2,4.5,8.3
		C149.3,85.9,150.1,87.2,150.1,88.5z"/>
	<path class="st0" d="M132.1,88.5c0,2.3-2.3,4.3-2.3,4.3l0,0l5.2,4.5c0.5-0.4,4.5-3.8,4.5-8.7c0-2.1-0.8-5.2-4.5-8.3
		c-1.5-1.3-2.3-2.5-2.3-3.8c0-2.3,2.3-4.3,2.3-4.3l0,0l-5.2-4.5c-0.5,0.4-4.5,3.8-4.5,8.7c0,2.1,0.8,5.2,4.5,8.3
		C131.3,85.9,132.1,87.2,132.1,88.5z"/>
</g>
<g>
	<path class="st0" d="M64,180.4c3.9,0,5.3,2.7,5.3,6.1c0,1.5-0.6,3.2-0.8,3.7h-9.3c-0.1,2.7,1.5,3.9,3.7,3.9c1,0,2.2-0.6,3-1.1
		l1.6,2.8c-1.3,0.9-3.3,1.7-5.8,1.7c-3.9,0-6.7-2.6-6.7-7C54.9,184.5,59.6,180.4,64,180.4z M65.5,187.5c0.1-0.3,0.1-0.8,0.1-1.2
		c0-1.3-0.6-2.4-2.2-2.4c-1.6,0-3.1,1.2-3.9,3.6H65.5z"/>
	<path class="st0" d="M71.3,191.5c0-6.2,4.2-11.1,8.7-11.1c1.5,0,2.9,0.8,3.5,2.1h0.1l0.7-1.7h3.6l-3.3,16.3H81l0.1-2.1H81
		c-1.5,1.5-3.4,2.5-5.1,2.5C73,197.5,71.3,195.3,71.3,191.5z M81.3,191.4l1.2-5.8c-0.5-1.1-1.4-1.6-2.2-1.6c-2.3,0-4.4,3-4.4,6.9
		c0,2,0.7,2.9,1.9,2.9C78.9,193.8,80.3,193.3,81.3,191.4z"/>
	<path class="st0" d="M93,198.7l-0.8,4.4h-4.5l4.5-22.4h3.7l0,1.9h0.1c1.5-1.3,3.3-2.3,5-2.3c2.9,0,4.6,2.1,4.6,6
		c0,6.2-4.2,11.1-8.7,11.1c-1.4,0-2.6-0.7-3.3-1.9h-0.1L93,198.7z M95.6,186.1l-1.2,6.2c0.5,1.1,1.3,1.5,2.1,1.5
		c2.3,0,4.4-3,4.4-6.9c0-2-0.7-2.9-1.9-2.9C97.9,184.1,96.6,184.6,95.6,186.1z"/>
	<path class="st0" d="M110.3,180.8h3.7l-0.2,3.2h0.1c1.3-2.1,3.1-3.6,5-3.6c0.8,0,1.3,0.1,1.7,0.3l-1.5,3.9
		c-0.4-0.2-1.1-0.3-1.6-0.3c-1.4,0-2.8,1-4.1,3.3l-1.8,9.4H107L110.3,180.8z"/>
	<path class="st0" d="M119.8,190.8c0-6.3,4.6-10.4,9.1-10.4c3.8,0,6.3,2.7,6.3,6.7c0,6.3-4.6,10.4-9.1,10.4
		C122.4,197.5,119.8,194.8,119.8,190.8z M130.8,187.2c0-2-0.8-3.2-2.3-3.2c-2.2,0-4.1,2.9-4.1,6.7c0,2,0.8,3.2,2.3,3.2
		C128.9,193.9,130.8,191,130.8,187.2z"/>
	<path class="st0" d="M132.1,202.8l1.4-3.2c0.4,0.3,0.9,0.4,1.4,0.4c1.1,0,1.6-0.8,2-2.6l3.3-16.6h4.5l-3.4,16.8
		c-0.7,3.3-2.4,5.9-6.1,5.9C134.1,203.5,133.1,203.3,132.1,202.8z M140.8,176.2c0-1.4,1.2-2.7,2.8-2.7c1.2,0,2.4,0.8,2.4,2.2
		c0,1.5-1.2,2.7-2.8,2.7C142,178.3,140.8,177.6,140.8,176.2z"/>
	<path class="st0" d="M155.2,180.4c3.9,0,5.3,2.7,5.3,6.1c0,1.5-0.6,3.2-0.8,3.7h-9.3c-0.1,2.7,1.5,3.9,3.7,3.9c1,0,2.2-0.6,3-1.1
		l1.6,2.8c-1.3,0.9-3.3,1.7-5.8,1.7c-3.9,0-6.7-2.6-6.7-7C146.1,184.5,150.8,180.4,155.2,180.4z M156.7,187.5
		c0.1-0.3,0.1-0.8,0.1-1.2c0-1.3-0.6-2.4-2.2-2.4c-1.6,0-3.1,1.2-3.9,3.6H156.7z"/>
	<path class="st0" d="M162.4,190.8c0-5.6,4.2-10.4,9.6-10.4c2,0,3.5,1,4.4,2l-2.5,2.7c-0.7-0.7-1.2-1.1-2.2-1.1
		c-2.6,0-4.7,3-4.7,6.7c0,2,0.9,3.2,2.8,3.2c1.1,0,1.9-0.5,2.6-1.1l1.9,2.8c-1.2,0.9-2.9,1.9-5.5,1.9
		C165.2,197.5,162.4,195,162.4,190.8z"/>
	<path class="st0" d="M178.1,193.2c0-0.7,0.1-1.4,0.2-2.1l1.4-6.8h-2.2l0.7-3.3l2.4-0.2l1.4-4.3h3.8l-0.8,4.3h3.7l-0.7,3.5h-3.8
		l-1.4,7c-0.1,0.4-0.1,0.7-0.1,1.1c0,1.1,0.5,1.6,1.7,1.6c0.5,0,0.9-0.2,1.3-0.4l0.8,3.2c-0.9,0.3-2.2,0.7-3.8,0.7
		C179.4,197.5,178.1,195.7,178.1,193.2z"/>
	<path class="st0" d="M189,195c0-1.6,1.3-3.3,3.2-3.3c1.4,0,2.3,1.1,2.3,2.5c0,1.6-1.3,3.3-3.2,3.3C189.9,197.5,189,196.5,189,195z"
		/>
	<path class="st0" d="M198.4,190.8c0-6.3,4.6-10.4,9.1-10.4c3.8,0,6.3,2.7,6.3,6.7c0,6.3-4.6,10.4-9.1,10.4
		C201,197.5,198.4,194.8,198.4,190.8z M209.3,187.2c0-2-0.8-3.2-2.3-3.2c-2.2,0-4.1,2.9-4.1,6.7c0,2,0.8,3.2,2.3,3.2
		C207.5,193.9,209.3,191,209.3,187.2z"/>
	<path class="st0" d="M218.7,180.8h3.7l-0.2,3.2h0.1c1.3-2.1,3.1-3.6,5-3.6c0.8,0,1.3,0.1,1.7,0.3l-1.5,3.9
		c-0.4-0.2-1.1-0.3-1.6-0.3c-1.4,0-2.8,1-4.1,3.3l-1.8,9.4h-4.5L218.7,180.8z"/>
	<path class="st0" d="M226.9,201.8l1.9-3c1.2,1,2.7,1.7,4.2,1.7c2.1,0,3.6-1.2,4.2-3.4l0.8-2.9c-1.5,1.5-3.2,2.4-5,2.4
		c-2.7,0-4.8-1.9-4.8-5.7c0-5.9,4-10.5,8.5-10.5c1.5,0,2.9,0.8,3.5,2.1h0.1l0.7-1.7h3.7l-3.2,16c-1,4.8-4.1,7.3-8.6,7.3
		C231,204.1,228.7,203.3,226.9,201.8z M238.3,190.8l1-5.2c-0.6-1.1-1.4-1.6-2.1-1.6c-2.2,0-4.2,2.7-4.2,6.2c0,1.8,0.7,2.6,1.8,2.6
		C235.9,192.9,237.2,192.4,238.3,190.8z"/>
	<path class="st0" d="M55.5,175.8l0.4-2.1h-7.1l1.9-9.6l-5.9,2.7l-1.4,6.9h-3l-0.4,2.1h3l-0.6,2.9h-3.2l-0.4,2.1H42l-0.7,3.7
		l-1.2,6.1c-0.1,0.4-0.1,0.9-0.1,1.5c0,1.6,0.5,2.9,1.5,3.9c1,1,2.4,1.5,4.1,1.5c1.5,0,4.2-0.6,5.3-1.5l-2-3.8
		c-0.6,0.3-1.2,0.4-1.8,0.4c-1.1,0-1.6-0.5-1.6-1.5c0-0.3,0-0.6,0.1-1l1-5.1l0.8-4.4h6.9l0.4-2.1h-6.9l0.6-2.9H55.5L55.5,175.8z"/>
</g>
</svg>
