<?xml version="1.0" encoding="utf-8"?>
<!-- Generator: Adobe Illustrator 23.1.0, SVG Export Plug-In . SVG Version: 6.00 Build 0)  -->
<svg version="1.1" id="图层_1" xmlns="http://www.w3.org/2000/svg" xmlns:xlink="http://www.w3.org/1999/xlink" x="0px" y="0px"
	 viewBox="0 0 283.5 113.4" style="enable-background:new 0 0 283.5 113.4;" xml:space="preserve">
<g>
	<path d="M51.3,52c4.5,0,6.1,3.2,6.1,7.1c0,1.8-0.7,3.7-1,4.3H45.8c-0.1,3.1,1.8,4.5,4.2,4.5c1.2,0,2.5-0.6,3.5-1.3l1.8,3.3
		c-1.5,1.1-3.8,2-6.8,2c-4.6,0-7.7-3-7.7-8.1C40.8,56.7,46.3,52,51.3,52z M53,60.2c0.1-0.4,0.2-0.9,0.2-1.4c0-1.5-0.6-2.8-2.5-2.8
		c-1.8,0-3.6,1.4-4.5,4.2H53z"/>
	<path d="M59.7,64.8c0-7.2,4.9-12.8,10.1-12.8c1.7,0,3.4,1,4.1,2.5H74l0.8-2H79l-3.8,18.8H71l0.1-2.5H71c-1.7,1.8-3.9,2.9-5.9,2.9
		C61.7,71.7,59.7,69.3,59.7,64.8z M71.4,64.7l1.3-6.7c-0.6-1.3-1.6-1.8-2.5-1.8c-2.6,0-5,3.4-5,7.9c0,2.3,0.9,3.3,2.2,3.3
		C68.6,67.5,70.1,66.8,71.4,64.7z"/>
	<path d="M84.8,73.2l-1,5.1h-5.2l5.2-25.8h4.2l0,2.2h0.1C89.9,53,92,52,94,52c3.3,0,5.3,2.5,5.3,6.9c0,7.2-4.9,12.8-10.1,12.8
		c-1.6,0-3-0.9-3.8-2.2h-0.1L84.8,73.2z M87.8,58.6l-1.4,7.1c0.6,1.2,1.5,1.8,2.5,1.8c2.6,0,5-3.4,5-7.9c0-2.3-0.9-3.3-2.2-3.3
		C90.5,56.2,89,56.9,87.8,58.6z"/>
	<path d="M104.8,52.4h4.2l-0.2,3.7h0.2c1.5-2.4,3.6-4.1,5.8-4.1c1,0,1.6,0.1,2,0.4l-1.7,4.5c-0.5-0.3-1.2-0.3-1.9-0.3
		c-1.7,0-3.2,1.2-4.7,3.8l-2.1,10.9h-5.2L104.8,52.4z"/>
	<path d="M115.9,64c0-7.3,5.4-12,10.6-12c4.4,0,7.3,3.1,7.3,7.8c0,7.3-5.4,12-10.6,12C118.8,71.7,115.9,68.6,115.9,64z M128.5,59.8
		c0-2.3-0.9-3.7-2.6-3.7c-2.5,0-4.7,3.3-4.7,7.7c0,2.3,0.9,3.7,2.6,3.7C126.3,67.5,128.5,64.2,128.5,59.8z"/>
	<path d="M130,77.9l1.6-3.7c0.5,0.3,1,0.5,1.6,0.5c1.3,0,1.8-0.9,2.3-2.9l3.9-19.2h5.2l-3.9,19.4c-0.8,3.8-2.7,6.9-7,6.9
		C132.3,78.7,131.2,78.5,130,77.9z M140.1,47.1c0-1.7,1.4-3.1,3.2-3.1c1.4,0,2.8,0.9,2.8,2.5c0,1.8-1.4,3.1-3.2,3.1
		C141.5,49.6,140.1,48.8,140.1,47.1z"/>
	<path d="M156.7,52c4.5,0,6.1,3.2,6.1,7.1c0,1.8-0.7,3.7-1,4.3h-10.7c-0.1,3.1,1.8,4.5,4.2,4.5c1.2,0,2.5-0.6,3.5-1.3l1.8,3.3
		c-1.5,1.1-3.8,2-6.8,2c-4.6,0-7.7-3-7.7-8.1C146.2,56.7,151.7,52,156.7,52z M158.4,60.1c0.1-0.4,0.2-0.9,0.2-1.4
		c0-1.5-0.6-2.8-2.5-2.8c-1.8,0-3.6,1.4-4.5,4.2H158.4z"/>
	<path d="M165.1,64c0-6.5,4.9-12,11.1-12c2.4,0,4.1,1.1,5.1,2.3l-2.9,3.1c-0.8-0.8-1.4-1.2-2.5-1.2c-3,0-5.4,3.5-5.4,7.7
		c0,2.3,1.1,3.7,3.2,3.7c1.3,0,2.2-0.6,3-1.2l2.2,3.2c-1.4,1.1-3.4,2.2-6.3,2.2C168.3,71.7,165.1,68.9,165.1,64z"/>
	<path d="M183.2,66.7c0-0.8,0.1-1.6,0.3-2.4l1.6-7.9h-2.5l0.8-3.8l2.8-0.2l1.6-4.9h4.4l-0.9,4.9h4.3l-0.8,4.1h-4.4l-1.6,8.1
		c-0.1,0.5-0.1,0.8-0.1,1.3c0,1.2,0.6,1.8,2,1.8c0.5,0,1-0.2,1.5-0.4l0.9,3.7c-1,0.4-2.5,0.8-4.4,0.8
		C184.7,71.7,183.2,69.6,183.2,66.7z"/>
	<path d="M195.8,68.9c0-1.8,1.5-3.8,3.7-3.8c1.6,0,2.7,1.2,2.7,2.8c0,1.9-1.5,3.8-3.7,3.8C196.9,71.7,195.8,70.6,195.8,68.9z"/>
	<path d="M206.7,64c0-7.3,5.4-12,10.6-12c4.4,0,7.3,3.1,7.3,7.8c0,7.3-5.4,12-10.6,12C209.6,71.7,206.7,68.6,206.7,64z M219.3,59.8
		c0-2.3-0.9-3.7-2.6-3.7c-2.5,0-4.7,3.3-4.7,7.7c0,2.3,0.9,3.7,2.6,3.7C217.1,67.5,219.3,64.2,219.3,59.8z"/>
	<path d="M230.1,52.4h4.2l-0.2,3.7h0.2c1.5-2.4,3.6-4.1,5.8-4.1c1,0,1.6,0.1,2,0.4l-1.7,4.5c-0.5-0.3-1.2-0.3-1.9-0.3
		c-1.7,0-3.2,1.2-4.7,3.8l-2.1,10.9h-5.2L230.1,52.4z"/>
	<path d="M239.6,76.7l2.2-3.5c1.4,1.1,3.1,2,4.8,2c2.5,0,4.1-1.4,4.9-3.9l1-3.3c-1.7,1.7-3.7,2.7-5.8,2.7c-3.2,0-5.5-2.2-5.5-6.6
		c0-6.8,4.7-12.1,9.8-12.1c1.7,0,3.3,1,4,2.5h0.1l0.8-2h4.2L256.5,71c-1.1,5.6-4.7,8.4-10,8.4C244.3,79.3,241.7,78.4,239.6,76.7z
		 M252.7,64l1.2-6c-0.6-1.3-1.6-1.8-2.5-1.8c-2.6,0-4.8,3.1-4.8,7.2c0,2,0.8,3,2.1,3C250,66.4,251.5,65.8,252.7,64z"/>
	<path d="M41.5,46.6l0.5-2.5h-8.2L36,33.1l-6.9,3.1l-1.6,8H24l-0.5,2.5H27L26.4,50h-3.7l-0.5,2.5h3.7l-0.8,4.3l-1.4,7.1
		c-0.1,0.5-0.2,1.1-0.2,1.7c0,1.9,0.6,3.4,1.8,4.5c1.2,1.1,2.7,1.7,4.7,1.7c1.7,0,4.9-0.7,6.2-1.7l-2.3-4.4c-0.7,0.3-1.4,0.5-2,0.5
		c-1.2,0-1.9-0.6-1.9-1.7c0-0.3,0-0.7,0.1-1.1l1.1-5.8l0.9-5.1h8l0.5-2.5h-8l0.6-3.3L41.5,46.6L41.5,46.6z"/>
</g>
</svg>
